
<svg version="1.1" xmlns="http://www.w3.org/2000/svg" width="884" height="282">
<path d="M0 0 C5.445 0.495 5.445 0.495 11 1 C12.10558038 5.64343758 12.028972 8.63771021 10 13 C9.01 13.33 8.02 13.66 7 14 C7.495 14.7425 7.495 14.7425 8 15.5 C9.40105187 19.00262967 9.47187674 22.30608992 9 26 C7.21264012 30.1391492 4.80138411 32.60347523 1 35 C-1.96713787 35.89173374 -4.9544883 36.4497376 -8 37 C-9.3358549 37.32307983 -10.67010524 37.65320205 -12 38 C-12 37.34 -12 36.68 -12 36 C-13.65 36 -15.3 36 -17 36 C-17 36.66 -17 37.32 -17 38 C-15.17275391 38.05607422 -15.17275391 38.05607422 -13.30859375 38.11328125 C-11.6848671 38.17898117 -10.06117051 38.24542709 -8.4375 38.3125 C-7.23770508 38.34633789 -7.23770508 38.34633789 -6.01367188 38.38085938 C0.14385281 38.65731967 4.72000374 39.76609308 9.8984375 43.29296875 C12.61056069 47.49579794 11.8171383 53.28262005 11 58 C8.15111489 62.32519813 3.84223136 64.45867002 -1 66 C-3.78202537 66.26777347 -6.40617945 66.42797072 -9.1875 66.4375 C-10.31381836 66.44221313 -10.31381836 66.44221313 -11.46289062 66.44702148 C-17.97456582 66.30750562 -24.23028061 64.76971939 -29 60 C-29.16796875 58.00390625 -29.16796875 58.00390625 -29.1875 55.5625 C-29.20167969 54.75941406 -29.21585938 53.95632812 -29.23046875 53.12890625 C-29 51 -29 51 -27 49 C-27.40528901 46.21762345 -27.40528901 46.21762345 -29 44 C-29.41199125 38.7471116 -28.65673037 35.53858105 -26 31 C-26.66 30.01 -27.32 29.02 -28 28 C-28.70880848 22.74987209 -28.62519342 18.29669747 -26.3125 13.5 C-23.44526089 10.40028204 -21.16335349 8.23545718 -16.81518555 7.76220703 C-14.26611853 7.70502697 -11.73606739 7.73838059 -9.1875 7.8125 C-7.86202148 7.83280273 -7.86202148 7.83280273 -6.50976562 7.85351562 C-4.33957977 7.88870783 -2.16970967 7.94251015 0 8 C0 5.36 0 2.72 0 0 Z M-13 19 C-13 20.98 -13 22.96 -13 25 C-11.02 25.99 -11.02 25.99 -9 27 C-7.31318262 25.89958081 -7.31318262 25.89958081 -6 24 C-6.23283149 20.85078091 -6.23283149 20.85078091 -7 18 C-9.02450921 18 -11.02400526 18.59466775 -13 19 Z M-15 50 C-15.66 51.32 -16.32 52.64 -17 54 C-13.76198557 55.95033892 -11.61404175 56.19756549 -7.875 55.8125 C-7.00617187 55.73644531 -6.13734375 55.66039062 -5.2421875 55.58203125 C-2.63251223 55.17025522 -2.63251223 55.17025522 -1 52 C-4.42094242 49.71937172 -5.68187222 49.78074993 -9.6875 49.875 C-10.68136719 49.89304688 -11.67523437 49.91109375 -12.69921875 49.9296875 C-13.45847656 49.95289063 -14.21773437 49.97609375 -15 50 Z " fill="#2C313A" transform="translate(554,180)"/>
<path d="M0 0 C1.65322266 0.01740234 1.65322266 0.01740234 3.33984375 0.03515625 C4.99693359 0.04869141 4.99693359 0.04869141 6.6875 0.0625 C7.54214844 0.07410156 8.39679688 0.08570313 9.27734375 0.09765625 C9.60734375 0.75765625 9.93734375 1.41765625 10.27734375 2.09765625 C11.26734375 1.43765625 12.25734375 0.77765625 13.27734375 0.09765625 C16.00463867 -0.12939453 16.00463867 -0.12939453 19.2578125 -0.09765625 C21.00288086 -0.08798828 21.00288086 -0.08798828 22.78320312 -0.078125 C23.99814453 -0.06136719 25.21308594 -0.04460937 26.46484375 -0.02734375 C27.69138672 -0.01832031 28.91792969 -0.00929687 30.18164062 0 C33.2137367 0.02359608 36.24544313 0.05651784 39.27734375 0.09765625 C39.9609375 1.953125 40.64453125 3.80859375 41.328125 5.6640625 C42.56688693 8.83998301 43.93448897 11.96432843 45.27734375 15.09765625 C46.92734375 10.14765625 48.57734375 5.19765625 50.27734375 0.09765625 C54.89734375 0.09765625 59.51734375 0.09765625 64.27734375 0.09765625 C63.73806682 6.31353239 62.27078393 11.54284345 60.02734375 17.34765625 C59.7137793 18.17378418 59.40021484 18.99991211 59.07714844 19.85107422 C58.15354765 22.27045544 57.2161089 24.68412795 56.27734375 27.09765625 C55.89642578 28.10070801 55.89642578 28.10070801 55.5078125 29.12402344 C52.67735324 36.57572134 52.67735324 36.57572134 51.27734375 39.09765625 C48.39523073 40.05836059 46.57884331 40.20347508 43.58984375 40.16015625 C42.37748047 40.14662109 42.37748047 40.14662109 41.140625 40.1328125 C40.52574219 40.12121094 39.91085937 40.10960937 39.27734375 40.09765625 C33.83754754 29.8430617 29.83078804 19.13203588 26.27734375 8.09765625 C22.85155426 11.27305181 22.85155426 11.27305181 20.27734375 15.09765625 C17.80234375 14.60265625 17.80234375 14.60265625 15.27734375 14.09765625 C11.14391219 18.02482875 10.78940579 21.18084813 10.61914062 26.59765625 C10.60947266 27.50515625 10.59980469 28.41265625 10.58984375 29.34765625 C10.54795318 31.16545317 10.5025746 32.98317425 10.453125 34.80078125 C10.44192627 35.60161133 10.43072754 36.40244141 10.41918945 37.22753906 C10.27734375 39.09765625 10.27734375 39.09765625 9.27734375 40.09765625 C7.27934803 40.19639441 5.27777217 40.22737424 3.27734375 40.22265625 C2.18421875 40.22523438 1.09109375 40.2278125 -0.03515625 40.23046875 C-2.72265625 40.09765625 -2.72265625 40.09765625 -3.72265625 39.09765625 C-3.8236888 36.29772028 -3.86235713 33.52296981 -3.85546875 30.72265625 C-3.85642548 29.88299316 -3.8573822 29.04333008 -3.85836792 28.17822266 C-3.85904973 26.3994133 -3.85719542 24.62060148 -3.85302734 22.84179688 C-3.84767908 20.10931849 -3.8529723 17.37700449 -3.859375 14.64453125 C-3.85871422 12.92057255 -3.85743306 11.19661396 -3.85546875 9.47265625 C-3.85749298 8.64975098 -3.85951721 7.8268457 -3.86160278 6.97900391 C-3.83313285 0.13748683 -3.83313285 0.13748683 0 0 Z " fill="#292F38" transform="translate(321.72265625,187.90234375)"/>
<path d="M0 0 C4.29 0 8.58 0 13 0 C14.98 5.28 16.96 10.56 19 16 C20.65 10.72 22.3 5.44 24 0 C27.63 0 31.26 0 35 0 C37.475 6.435 37.475 6.435 40 13 C42.48794878 9.68273496 43.52821942 8.00386091 44.6875 4.25 C45.120625 2.8475 45.55375 1.445 46 0 C50.62 0 55.24 0 60 0 C61.43455858 4.30367574 59.49681995 7.11650146 57.75 11.0625 C55.38436838 16.57708496 53.280313 21.9795802 51.6875 27.7734375 C50.48213067 31.67719044 48.72903296 35.30344678 47 39 C42.71 39 38.42 39 34 39 C31.97944157 34.60748167 30.59104765 30.84659077 30 26 C27.65242532 29.52136202 26.90972772 32.75593069 25.87890625 36.8203125 C25.58886719 37.53960937 25.29882812 38.25890625 25 39 C22.23952457 39.92015848 20.36637731 40.19267245 17.5 40.25 C16.7265625 40.27578125 15.953125 40.3015625 15.15625 40.328125 C13 40 13 40 11.328125 38.828125 C9.61385991 36.46848953 9.01939041 34.31625923 8.25 31.5 C7.03927268 27.28382015 5.72622041 23.18916279 4.15234375 19.09375 C3.82911133 18.25134766 3.50587891 17.40894531 3.17285156 16.54101562 C2.5245473 14.86917452 1.86658579 13.20104084 1.19824219 11.53710938 C0.89950195 10.76173828 0.60076172 9.98636719 0.29296875 9.1875 C0.0199292 8.50042969 -0.25311035 7.81335938 -0.53442383 7.10546875 C-1 5 -1 5 0 0 Z " fill="#2D323B" transform="translate(448,188)"/>
<path d="M0 0 C2.0625 1.5625 2.0625 1.5625 3 4 C2.40392479 11.45094009 -3.05682167 15.83621702 -8 21 C-13.54857106 27.15193379 -18.82044098 33.53558912 -24 40 C-24.62390625 40.66515625 -25.2478125 41.3303125 -25.890625 42.015625 C-27.27067235 43.97686585 -27.27067235 43.97686585 -26.51953125 46.34375 C-24.59070932 49.71546956 -22.23211851 52.58703697 -19.6875 55.5 C-18.9769043 56.33337891 -18.9769043 56.33337891 -18.25195312 57.18359375 C-16.01867247 59.78043172 -13.74621492 62.25341513 -11.3203125 64.67578125 C-4 72.00841751 -4 72.00841751 -4 76 C-3.401875 76.226875 -2.80375 76.45375 -2.1875 76.6875 C0.6679498 78.40076988 1.65980327 79.9669232 3 83 C2.92307328 86.23092228 2.45666636 87.51071461 0.25 89.875 C-2 91 -2 91 -4.375 91 C-10.87355338 88.52436062 -14.59888077 83.18026232 -18.7421875 77.86328125 C-21.20068233 74.74550147 -23.74165261 71.71250626 -26.3125 68.6875 C-26.76947266 68.14464355 -27.22644531 67.60178711 -27.69726562 67.04248047 C-30.13285321 64.15720686 -32.60563833 61.31877565 -35.1484375 58.52734375 C-35.65721436 57.95733643 -36.16599121 57.3873291 -36.69018555 56.80004883 C-37.66195704 55.71292602 -38.64719398 54.63763676 -39.64770508 53.5769043 C-42.09268374 50.81303485 -42.98778636 49.0871997 -43.50390625 45.40234375 C-42.94786349 41.64797754 -42.22745687 40.25233412 -39.75 37.4375 C-39.028125 36.59703125 -38.30625 35.7565625 -37.5625 34.890625 C-36.716875 33.93671875 -35.87125 32.9828125 -35 32 C-33.44205473 30.1871553 -31.89160546 28.36804365 -30.34082031 26.54907227 C-28.34353447 24.21185548 -26.33087359 21.88807177 -24.31835938 19.56396484 C-23.08964289 18.10634302 -21.9246525 16.59565632 -20.765625 15.08203125 C-19.89164062 14.05142578 -19.89164062 14.05142578 -19 13 C-18.34 13 -17.68 13 -17 13 C-16.938125 12.46375 -16.87625 11.9275 -16.8125 11.375 C-14.12641272 3.52336026 -8.10160318 -1.03111313 0 0 Z " fill="#2F353D" transform="translate(400,49)"/>
<path d="M0 0 C6.55385165 -1.0161539 6.55385165 -1.0161539 9.63232422 1.14697266 C11.20012702 2.79145861 12.57121881 4.49718754 13.9375 6.3125 C14.44982178 6.9504248 14.96214355 7.58834961 15.48999023 8.24560547 C17.01399682 10.14841413 18.50731689 12.07258954 20 14 C21.51481743 15.8798636 23.03505341 17.75538348 24.5625 19.625 C25.26761719 20.49640625 25.97273437 21.3678125 26.69921875 22.265625 C30.18707552 26.41078585 33.8947594 30.33890524 37.6171875 34.2734375 C40.53480151 37.6119532 42.68701683 40.43508414 43.5625 44.8125 C42.72552453 49.55536101 40.07145255 52.39438179 37 56 C36.50886719 56.58910156 36.01773438 57.17820313 35.51171875 57.78515625 C34.02743496 59.54149206 32.51885661 61.27350223 31 63 C29.95809312 64.18728924 28.91644163 65.37480264 27.875 66.5625 C27.00875 67.54863281 27.00875 67.54863281 26.125 68.5546875 C24.42634434 70.50939052 22.74090387 72.47329472 21.0625 74.4453125 C20.27576904 75.36848267 20.27576904 75.36848267 19.47314453 76.31030273 C18.43064242 77.53483661 17.38986839 78.76084442 16.35107422 79.98852539 C8.27201691 89.47257836 8.27201691 89.47257836 4.4375 91.0625 C2 91 2 91 -0.375 89.5625 C-2.27486613 86.56655726 -2.43306603 84.56625093 -1.8125 81.08203125 C-0.54841546 77.84281462 1.65935963 75.95720505 4.21875 73.67578125 C5.9306632 72.06523133 7.08224237 70.55234852 8.3125 68.5625 C9.1478125 67.2940625 9.1478125 67.2940625 10 66 C10.66 66 11.32 66 12 66 C12.27255615 65.40832031 12.5451123 64.81664063 12.82592773 64.20703125 C13.96887958 62.05850044 15.16343825 60.4901857 16.78515625 58.6875 C17.31560547 58.08679688 17.84605469 57.48609375 18.39257812 56.8671875 C19.50759701 55.62045293 20.62479464 54.37566356 21.74414062 53.1328125 C22.27330078 52.53210938 22.80246094 51.93140625 23.34765625 51.3125 C23.83242432 50.77238281 24.31719238 50.23226562 24.81665039 49.67578125 C26.17481617 47.75243693 26.71551809 46.33503693 27 44 C25.4444811 41.42124084 25.4444811 41.42124084 23.125 38.875 C22.29484375 37.905625 21.4646875 36.93625 20.609375 35.9375 C17.47528482 32.40930267 14.31475344 28.90659671 11.13671875 25.41796875 C8.4450812 22.37203887 5.95507381 19.20498156 3.5078125 15.9609375 C1.90836568 13.82600085 1.90836568 13.82600085 -0.4375 11.3125 C-2.45379318 8.3283861 -2.46084551 6.53314892 -2 3 C-1.34 2.01 -0.68 1.02 0 0 Z " fill="#32373F" transform="translate(491,49)"/>
<path d="M0 0 C3.625 0.3125 3.625 0.3125 5.625 2 C6.90518386 4.96042518 6.49246295 6.23528933 5.625 9.3125 C4.3203125 11.55859375 4.3203125 11.55859375 2.75 13.75 C1.0165143 16.18471987 -0.4683421 18.49969427 -1.8046875 21.1796875 C-3.52501979 24.61179321 -5.52341373 27.79531665 -7.625 31 C-8.4337846 32.24596989 -9.24237652 33.49206486 -10.05078125 34.73828125 C-10.4473291 35.34752441 -10.84387695 35.95676758 -11.25244141 36.58447266 C-15.76383461 43.52915319 -20.16232748 50.54703183 -24.5625 57.5625 C-25.18692993 58.55515869 -25.18692993 58.55515869 -25.82397461 59.56787109 C-27.73217413 62.61686284 -29.59639314 65.67483294 -31.35546875 68.8125 C-33.54845063 72.69091535 -36.00748012 76.37179549 -38.5 80.0625 C-38.94214844 80.72121094 -39.38429688 81.37992187 -39.83984375 82.05859375 C-40.65663311 83.27514104 -41.47437826 84.49104764 -42.29345703 85.70605469 C-43.32517412 87.23849226 -44.35025912 88.77538869 -45.375 90.3125 C-48.570923 91.21569563 -50.49453047 91.70886795 -53.5703125 90.32421875 C-54.16585938 89.99035156 -54.76140625 89.65648437 -55.375 89.3125 C-56.34673582 80.70569702 -53.50875444 76.98189714 -48.375 70.3125 C-46.9715965 67.83327566 -46.9715965 67.83327566 -45.59375 65.33984375 C-43.87433438 62.47966199 -41.92638419 59.7850442 -40 57.0625 C-36.51626791 52.12662113 -33.52112321 47.09861882 -30.7109375 41.7421875 C-29.20083232 38.99573891 -27.47660068 36.52960827 -25.59716797 34.02807617 C-24.05569634 31.8642885 -22.79004539 29.56419294 -21.48583984 27.25244141 C-6.2099289 0.57499342 -6.2099289 0.57499342 0 0 Z " fill="#2E333C" transform="translate(470.375,48.6875)"/>
<path d="M0 0 C0.73347656 -0.02835938 1.46695312 -0.05671875 2.22265625 -0.0859375 C6.22988571 -0.10027464 8.74664263 0.28910073 11.9140625 2.84375 C17.0924866 8.16297718 17.66397286 12.21466738 17.6875 19.4375 C17.63964668 21.45873321 17.58202053 23.4798648 17.5 25.5 C13.04322044 27.07298102 8.48630823 26.16824735 3.90039062 25.640625 C-0.05091353 25.22030993 -0.05091353 25.22030993 -3.46484375 26.9765625 C-3.80644531 27.47929687 -4.14804687 27.98203125 -4.5 28.5 C-1.86 28.5 0.78 28.5 3.5 28.5 C3.83 27.84 4.16 27.18 4.5 26.5 C8.79 26.83 13.08 27.16 17.5 27.5 C16.22727273 35.13636364 16.22727273 35.13636364 12.5 38.5 C5.70485436 41.771269 -1.20538952 42.27465897 -8.5 40.5 C-12.85822149 38.69486205 -15.71679051 36.61165218 -18.4375 32.75 C-21.12751228 24.52172716 -20.75620406 16.85405288 -18.5 8.5 C-14.34990852 1.23733991 -7.7633944 -0.02728785 0 0 Z M-4.5 11.5 C-4.83 12.49 -5.16 13.48 -5.5 14.5 C-3.19 14.5 -0.88 14.5 1.5 14.5 C1.5 13.51 1.5 12.52 1.5 11.5 C-0.48 11.5 -2.46 11.5 -4.5 11.5 Z M-5.5 24.5 C-4.5 26.5 -4.5 26.5 -4.5 26.5 Z " fill="#2A3039" transform="translate(295.5,187.5)"/>
<path d="M0 0 C0.73798828 -0.01998047 1.47597656 -0.03996094 2.23632812 -0.06054688 C7.44471689 -0.0559172 10.47836467 0.95163861 14.5625 4.4375 C18.77312069 10.22428887 19.08274608 16.51533695 18.5625 23.4375 C17.5725 23.7675 16.5825 24.0975 15.5625 24.4375 C15.5625 25.0975 15.5625 25.7575 15.5625 26.4375 C16.5525 27.0975 17.5425 27.7575 18.5625 28.4375 C18.06071009 32.7863459 15.46552462 35.33193878 12.5625 38.4375 C6.96874655 41.81705938 0.11984116 41.94376593 -6.1875 40.8125 C-11.81060426 39.32227802 -15.07214756 36.55615034 -18.25 31.625 C-20.9706199 24.32228342 -20.87257703 17.80270836 -18.4375 10.4375 C-14.25892085 2.32345903 -8.85223223 -0.08459996 0 0 Z M-4.4375 12.4375 C-4.4375 13.0975 -4.4375 13.7575 -4.4375 14.4375 C-1.7975 14.4375 0.8425 14.4375 3.5625 14.4375 C3.2325 13.4475 2.9025 12.4575 2.5625 11.4375 C-0.80854174 9.97671524 -1.21899208 10.29182805 -4.4375 12.4375 Z M-4.4375 24.4375 C-3.93993908 27.19391416 -3.93993908 27.19391416 -2.4375 29.4375 C-0.10452567 29.47842937 2.22955225 29.47991723 4.5625 29.4375 C4.8925 28.4475 5.2225 27.4575 5.5625 26.4375 C7.625 25.75 7.625 25.75 9.5625 25.4375 C7.79353898 25.07409714 6.02223374 24.72209117 4.25 24.375 C3.26386719 24.17777344 2.27773438 23.98054688 1.26171875 23.77734375 C-1.53026461 23.22827784 -1.53026461 23.22827784 -4.4375 24.4375 Z " fill="#2F343E" transform="translate(586.4375,187.5625)"/>
<path d="M0 0 C1.79244141 0.01740234 1.79244141 0.01740234 3.62109375 0.03515625 C5.41740234 0.04869141 5.41740234 0.04869141 7.25 0.0625 C8.17683594 0.07410156 9.10367188 0.08570313 10.05859375 0.09765625 C10.38859375 0.75765625 10.71859375 1.41765625 11.05859375 2.09765625 C12.04859375 1.43765625 13.03859375 0.77765625 14.05859375 0.09765625 C25.61001284 -1.37820073 25.61001284 -1.37820073 30.0546875 1.30078125 C34.10520111 6.06043522 34.18245406 10.85750485 34.15625 16.83203125 C34.15302734 18.12753906 34.14980469 19.42304688 34.14648438 20.7578125 C34.13812973 22.12109442 34.12966479 23.48437567 34.12109375 24.84765625 C34.11607543 26.2265609 34.1115131 27.60546729 34.10742188 28.984375 C34.09563477 32.35548743 34.07769936 35.72657735 34.05859375 39.09765625 C27.62359375 39.59265625 27.62359375 39.59265625 21.05859375 40.09765625 C18.93221687 36.90809093 18.82705411 36.23447527 18.93359375 32.60546875 C18.9490625 31.73535156 18.96453125 30.86523438 18.98046875 29.96875 C19.03233 28.145827 19.08441143 26.32291025 19.13671875 24.5 C19.25402074 18.08506667 19.25402074 18.08506667 17.05859375 12.09765625 C13.68771108 14.37180912 13.68771108 14.37180912 12.05859375 18.09765625 C11.91144176 19.72332704 11.81137508 21.35352482 11.7421875 22.984375 C11.70029297 23.92216797 11.65839844 24.85996094 11.61523438 25.82617188 C11.57591797 26.80263672 11.53660156 27.77910156 11.49609375 28.78515625 C11.45291016 29.77322266 11.40972656 30.76128906 11.36523438 31.77929688 C11.25917721 34.21861171 11.15711661 36.65802738 11.05859375 39.09765625 C8.09510094 40.08548719 6.08732745 40.2317615 2.99609375 40.22265625 C1.67931641 40.22652344 1.67931641 40.22652344 0.3359375 40.23046875 C-1.94140625 40.09765625 -1.94140625 40.09765625 -3.94140625 39.09765625 C-3.96605474 33.70418637 -3.98424156 28.310749 -3.99633789 22.91723633 C-4.00137856 21.0809675 -4.00821102 19.24470271 -4.0168457 17.40844727 C-4.02892297 14.77489224 -4.03463706 12.14139009 -4.0390625 9.5078125 C-4.04422379 8.68177017 -4.04938507 7.85572784 -4.05470276 7.00465393 C-4.0548983 5.03529257 -4.00344777 3.06604011 -3.94140625 1.09765625 C-2.94140625 0.09765625 -2.94140625 0.09765625 0 0 Z " fill="#363B43" transform="translate(612.94140625,187.90234375)"/>
<path d="M0 0 C1.65322266 0.01740234 1.65322266 0.01740234 3.33984375 0.03515625 C4.99693359 0.04869141 4.99693359 0.04869141 6.6875 0.0625 C7.54214844 0.07410156 8.39679688 0.08570313 9.27734375 0.09765625 C9.27734375 0.75765625 9.27734375 1.41765625 9.27734375 2.09765625 C9.95796875 1.77796875 10.63859375 1.45828125 11.33984375 1.12890625 C16.83046621 -0.7986527 22.5539978 -0.69554343 28.27734375 0.09765625 C31.41148386 1.99414967 32.70567971 4.38944182 33.87451172 7.88208008 C34.41870627 10.87515014 34.40726734 13.75505668 34.41015625 16.796875 C34.41144531 18.08787109 34.41273438 19.37886719 34.4140625 20.70898438 C34.41196777 21.37744385 34.40987305 22.04590332 34.40771484 22.73461914 C34.4023346 24.7886484 34.40768583 26.84246164 34.4140625 28.89648438 C34.41277344 30.18361328 34.41148437 31.47074219 34.41015625 32.796875 C34.40902832 33.98112061 34.40790039 35.16536621 34.40673828 36.38549805 C34.27734375 39.09765625 34.27734375 39.09765625 33.27734375 40.09765625 C31.30021568 40.19665824 29.31944337 40.22736398 27.33984375 40.22265625 C25.71755859 40.22652344 25.71755859 40.22652344 24.0625 40.23046875 C21.27734375 40.09765625 21.27734375 40.09765625 19.27734375 39.09765625 C18.78234375 26.72265625 18.78234375 26.72265625 18.27734375 14.09765625 C13.49045586 14.51363145 13.49045586 14.51363145 11.96484375 16.66015625 C10.835418 20.66448392 10.37862882 25.30022639 12.27734375 29.09765625 C12.52000765 33.46560644 12.39966962 36.28921378 10.27734375 40.09765625 C8.31968094 40.17847719 6.36107647 40.23676403 4.40234375 40.28515625 C2.76652344 40.33736328 2.76652344 40.33736328 1.09765625 40.390625 C0.16695312 40.29394531 -0.76375 40.19726562 -1.72265625 40.09765625 C-4.23959363 36.32225017 -3.99396245 33.33436514 -3.953125 28.96484375 C-3.95266678 28.17240265 -3.95220856 27.37996155 -3.95173645 26.56350708 C-3.948718 24.89079284 -3.94084386 23.21808132 -3.9284668 21.54541016 C-3.91017639 18.97548553 -3.90795738 16.4059205 -3.90820312 13.8359375 C-3.90328913 12.21223645 -3.89746132 10.58853785 -3.890625 8.96484375 C-3.88951218 8.19196014 -3.88839935 7.41907654 -3.88725281 6.62277222 C-3.82905764 0.13734066 -3.82905764 0.13734066 0 0 Z " fill="#2B3039" transform="translate(204.72265625,187.90234375)"/>
<path d="M0 0 C0.7425 -0.02449219 1.485 -0.04898438 2.25 -0.07421875 C7.50005928 -0.10204592 10.48432866 0.88518269 14.625 4.375 C19.29179227 9.97764634 19.08510434 16.42231213 18.625 23.375 C16.645 24.365 16.645 24.365 14.625 25.375 C13.635 24.715 12.645 24.055 11.625 23.375 C11.295 24.035 10.965 24.695 10.625 25.375 C7.31257696 25.375 4.16569789 25.1883998 0.875 24.875 C-0.10984375 24.7821875 -1.0946875 24.689375 -2.109375 24.59375 C-2.85703125 24.5215625 -3.6046875 24.449375 -4.375 24.375 C-3.715 25.695 -3.055 27.015 -2.375 28.375 C-0.065 28.375 2.245 28.375 4.625 28.375 C4.955 27.715 5.285 27.055 5.625 26.375 C9.585 26.705 13.545 27.035 17.625 27.375 C18.625 31.375 18.625 31.375 17.55078125 33.2265625 C17.01839844 33.81179687 16.48601562 34.39703125 15.9375 35 C15.41800781 35.59039062 14.89851563 36.18078125 14.36328125 36.7890625 C9.80184026 40.95073675 4.58754391 41.28757267 -1.375 41.375 C-6.27920673 40.95729154 -9.45426408 40.15562394 -13.25 36.9375 C-13.95125 36.091875 -14.6525 35.24625 -15.375 34.375 C-15.9525 33.859375 -16.53 33.34375 -17.125 32.8125 C-21.08334327 28.26040523 -19.75584431 19.94484803 -19.375 14.375 C-18.14547621 9.21280821 -15.16937707 4.31270673 -10.76953125 1.26171875 C-7.2263173 -0.05036863 -3.7288729 0.006407 0 0 Z M-3.125 11.75 C-4.47661846 13.16541193 -4.47661846 13.16541193 -4.375 14.375 C-1.735 14.375 0.905 14.375 3.625 14.375 C3.295 13.385 2.965 12.395 2.625 11.375 C0.02138767 10.15998091 -0.81842112 9.93768802 -3.125 11.75 Z " fill="#31373F" transform="translate(427.375,187.625)"/>
<path d="M0 0 C0.75482666 0.00547852 1.50965332 0.01095703 2.28735352 0.01660156 C6.56437836 0.1785431 9.6028862 0.53927365 13 3.375 C17.07219957 7.76898101 17.80648162 11.42591877 17.6875 17.375 C17.66945313 18.54546875 17.65140625 19.7159375 17.6328125 20.921875 C17.60960937 21.81390625 17.58640625 22.7059375 17.5625 23.625 C11.76362302 26.80746394 5.82443686 25.62992161 -0.51953125 24.84375 C-2.44695241 24.58722723 -2.44695241 24.58722723 -4.4375 24.625 C-3.7775 25.945 -3.1175 27.265 -2.4375 28.625 C-0.1275 28.625 2.1825 28.625 4.5625 28.625 C4.8925 27.965 5.2225 27.305 5.5625 26.625 C9.5225 26.955 13.4825 27.285 17.5625 27.625 C17.38837848 32.06509877 17.03798768 34.10312328 14 37.4375 C7.97148892 41.7660281 1.4088102 42.13206952 -5.75 41.296875 C-11.20496313 39.93313422 -14.73115031 36.55152385 -18.375 32.4375 C-21.11315563 25.18944099 -21.01072451 17.85453554 -18.4375 10.625 C-14.14713958 2.6571878 -8.72729822 -0.12674699 0 0 Z M-4.4375 12.625 C-4.4375 13.285 -4.4375 13.945 -4.4375 14.625 C-1.7975 14.625 0.8425 14.625 3.5625 14.625 C3.2325 13.635 2.9025 12.645 2.5625 11.625 C-0.80854174 10.16421524 -1.21899208 10.47932805 -4.4375 12.625 Z " fill="#2E343C" transform="translate(691.4375,187.375)"/>
<path d="M0 0 C1.79244141 0.01740234 1.79244141 0.01740234 3.62109375 0.03515625 C5.41740234 0.04869141 5.41740234 0.04869141 7.25 0.0625 C8.17683594 0.07410156 9.10367187 0.08570313 10.05859375 0.09765625 C10.38859375 3.06765625 10.71859375 6.03765625 11.05859375 9.09765625 C14.02859375 9.42765625 16.99859375 9.75765625 20.05859375 10.09765625 C20.28010924 11.88774092 20.48541588 13.67983787 20.68359375 15.47265625 C20.85761719 16.96925781 20.85761719 16.96925781 21.03515625 18.49609375 C21.04289062 19.35460937 21.050625 20.213125 21.05859375 21.09765625 C18.05242106 24.10382894 15.23477777 23.69350941 11.05859375 24.09765625 C11.05859375 28.05765625 11.05859375 32.01765625 11.05859375 36.09765625 C11.71859375 35.43765625 12.37859375 34.77765625 13.05859375 34.09765625 C17.01663323 34.39084436 20.7914176 34.71010445 24.05859375 37.09765625 C24.80859375 39.22265625 24.80859375 39.22265625 25.05859375 41.09765625 C24.06859375 41.59265625 24.06859375 41.59265625 23.05859375 42.09765625 C22.62546875 42.88140625 22.19234375 43.66515625 21.74609375 44.47265625 C19.69056562 47.67014445 18.60848062 48.6924927 15.05859375 50.09765625 C9.66246885 50.77320166 5.42285469 50.76781952 0.49609375 48.34765625 C-2.30326523 45.76363258 -3.75587164 43.8189386 -4.16845703 39.99121094 C-4.15274658 38.89147949 -4.15274658 38.89147949 -4.13671875 37.76953125 C-4.12705078 36.57070312 -4.12705078 36.57070312 -4.1171875 35.34765625 C-4.10042969 34.52265625 -4.08367187 33.69765625 -4.06640625 32.84765625 C-4.05738281 32.0071875 -4.04835937 31.16671875 -4.0390625 30.30078125 C-4.01556442 28.23295021 -3.97969533 26.1652663 -3.94140625 24.09765625 C-4.60140625 24.09765625 -5.26140625 24.09765625 -5.94140625 24.09765625 C-7.56640625 22.72265625 -7.56640625 22.72265625 -8.94140625 21.09765625 C-8.94140625 20.43765625 -8.94140625 19.77765625 -8.94140625 19.09765625 C-9.60140625 18.76765625 -10.26140625 18.43765625 -10.94140625 18.09765625 C-10.28140625 15.78765625 -9.62140625 13.47765625 -8.94140625 11.09765625 C-7.29140625 10.76765625 -5.64140625 10.43765625 -3.94140625 10.09765625 C-3.95300781 9.45957031 -3.96460938 8.82148438 -3.9765625 8.1640625 C-3.98558594 7.33777344 -3.99460938 6.51148438 -4.00390625 5.66015625 C-4.01550781 4.83644531 -4.02710938 4.01273438 -4.0390625 3.1640625 C-3.88296719 -0.13891421 -3.35803623 0.11148859 0 0 Z " fill="#272C35" transform="translate(250.94140625,177.90234375)"/>
<path d="M0 0 C2.75219211 0.54868264 3.69929918 1.13885096 5.51171875 3.23828125 C8.40525596 8.09195656 8.57158429 11.58893759 8.546875 17.22265625 C8.54365234 18.51816406 8.54042969 19.81367188 8.53710938 21.1484375 C8.52875473 22.51171942 8.52028979 23.87500067 8.51171875 25.23828125 C8.50670043 26.6171859 8.5021381 27.99609229 8.49804688 29.375 C8.48625977 32.74611243 8.46832436 36.11720235 8.44921875 39.48828125 C2.01421875 39.98328125 2.01421875 39.98328125 -4.55078125 40.48828125 C-6.67715813 37.29871593 -6.78232089 36.62510027 -6.67578125 32.99609375 C-6.6603125 32.12597656 -6.64484375 31.25585938 -6.62890625 30.359375 C-6.577045 28.536452 -6.52496357 26.71353525 -6.47265625 24.890625 C-6.2821302 18.4379947 -6.2821302 18.4379947 -8.55078125 12.48828125 C-9.41703125 11.97265625 -10.28328125 11.45703125 -11.17578125 10.92578125 C-11.95953125 10.45140625 -12.74328125 9.97703125 -13.55078125 9.48828125 C-13.55078125 8.16828125 -13.55078125 6.84828125 -13.55078125 5.48828125 C-12.89078125 5.48828125 -12.23078125 5.48828125 -11.55078125 5.48828125 C-11.22078125 4.82828125 -10.89078125 4.16828125 -10.55078125 3.48828125 C-7.53580081 -0.32257913 -4.61612662 -0.12803855 0 0 Z " fill="#2F353D" transform="translate(638.55078125,187.51171875)"/>
<path d="M0 0 C0.74701172 -0.01546875 1.49402344 -0.0309375 2.26367188 -0.046875 C7.49654139 -0.01012087 10.58849363 0.99710101 14.6875 4.5 C18.89812069 10.28678887 19.20774608 16.57783695 18.6875 23.5 C17.6975 23.83 16.7075 24.16 15.6875 24.5 C15.3575 25.16 15.0275 25.82 14.6875 26.5 C13.40875 26.355625 12.13 26.21125 10.8125 26.0625 C5.77469116 25.50185355 0.73213121 24.99498469 -4.3125 24.5 C-4.3125 21.5 -4.3125 21.5 -3.3125 19.5 C-3.93125 19.231875 -4.55 18.96375 -5.1875 18.6875 C-7.3125 17.5 -7.3125 17.5 -9.3125 14.5 C-8.9825 13.51 -8.6525 12.52 -8.3125 11.5 C-8.9725 11.5 -9.6325 11.5 -10.3125 11.5 C-11.63625237 5.24226153 -11.63625237 5.24226153 -10.3515625 2.296875 C-7.23119786 -0.45287162 -3.95255391 -0.08059583 0 0 Z M-4.3125 12.5 C-4.3125 13.16 -4.3125 13.82 -4.3125 14.5 C-1.6725 14.5 0.9675 14.5 3.6875 14.5 C3.3575 13.51 3.0275 12.52 2.6875 11.5 C-0.68354174 10.03921524 -1.09399208 10.35432805 -4.3125 12.5 Z " fill="#2C313A" transform="translate(586.3125,187.5)"/>
<path d="M0 0 C4.62 0 9.24 0 14 0 C14 12.87 14 25.74 14 39 C9.50927531 40.12268117 4.31160613 41.15580306 0 39 C-0.16743288 33.76743778 -0.328011 28.53472773 -0.48217773 23.30175781 C-0.5356202 21.52077543 -0.59095129 19.73984869 -0.64819336 17.95898438 C-0.73004181 15.40246583 -0.8051453 12.84582555 -0.87890625 10.2890625 C-0.90594131 9.49005524 -0.93297638 8.69104797 -0.96083069 7.86782837 C-1.11387171 2.22774341 -1.11387171 2.22774341 0 0 Z " fill="#2D323A" transform="translate(389,188)"/>
<path d="M0 0 C4.29 0 8.58 0 13 0 C13 12.87 13 25.74 13 39 C8.29784261 39.94043148 4.73251153 40.15775038 0 40 C-1.84276509 38.15723491 -1.12874411 35.57036241 -1.13894653 33.11865234 C-1.1369223 32.29574707 -1.13489807 31.4728418 -1.1328125 30.625 C-1.13376923 29.78533691 -1.13472595 28.94567383 -1.13571167 28.08056641 C-1.13639348 26.30175705 -1.13453917 24.52294523 -1.13037109 22.74414062 C-1.12502283 20.01166224 -1.13031605 17.27934824 -1.13671875 14.546875 C-1.13605797 12.8229163 -1.13477681 11.09895771 -1.1328125 9.375 C-1.13483673 8.55209473 -1.13686096 7.72918945 -1.13894653 6.88134766 C-1.11495054 1.11495054 -1.11495054 1.11495054 0 0 Z " fill="#2C313A" transform="translate(182,188)"/>
<path d="M0 0 C4.62 0 9.24 0 14 0 C15.09896431 8.44981445 14.92939305 16.6232024 14.5625 25.125 C14.50913275 26.47653766 14.45639406 27.82810029 14.40429688 29.1796875 C14.27568583 32.45342325 14.14077385 35.72676853 14 39 C11.85473901 39.19393875 9.70876323 39.37998676 7.5625 39.5625 C5.77005859 39.71912109 5.77005859 39.71912109 3.94140625 39.87890625 C2.97074219 39.91886719 2.00007812 39.95882812 1 40 C0 39 0 39 -0.11352539 35.30639648 C-0.11336624 33.66128708 -0.10766988 32.01617269 -0.09765625 30.37109375 C-0.0962413 29.50686295 -0.09482635 28.64263214 -0.09336853 27.75221252 C-0.08775239 24.98060708 -0.07519719 22.2090812 -0.0625 19.4375 C-0.05748708 17.5631522 -0.05292381 15.68880315 -0.04882812 13.81445312 C-0.03777772 9.20960456 -0.0205023 4.60481579 0 0 Z " fill="#333840" transform="translate(653,188)"/>
<path d="M0 0 C0.75152344 -0.02900391 1.50304687 -0.05800781 2.27734375 -0.08789062 C7.57949067 -0.14803714 10.56860747 0.77150092 14.75 4.3125 C19.41679227 9.91514634 19.21010434 16.35981213 18.75 23.3125 C16.77 24.3025 16.77 24.3025 14.75 25.3125 C13.76 24.6525 12.77 23.9925 11.75 23.3125 C11.42 23.9725 11.09 24.6325 10.75 25.3125 C7.36957352 25.3125 4.44159629 25.04978618 1.125 24.5 C0.16335938 24.34917969 -0.79828125 24.19835937 -1.7890625 24.04296875 C-4.25 23.3125 -4.25 23.3125 -6.25 20.3125 C-5.92 19.6525 -5.59 18.9925 -5.25 18.3125 C-5.91 17.9825 -6.57 17.6525 -7.25 17.3125 C-7.25 16.6525 -7.25 15.9925 -7.25 15.3125 C-3.29 15.3125 0.67 15.3125 4.75 15.3125 C4.75 13.9925 4.75 12.6725 4.75 11.3125 C3.986875 11.35375 3.22375 11.395 2.4375 11.4375 C-0.25 11.3125 -0.25 11.3125 -3.25 9.3125 C-4.24 10.7975 -4.24 10.7975 -5.25 12.3125 C-7.23 11.6525 -9.21 10.9925 -11.25 10.3125 C-11.13637738 8.8324159 -11.00877092 7.35339926 -10.875 5.875 C-10.80539062 5.05128906 -10.73578125 4.22757813 -10.6640625 3.37890625 C-10.52742188 2.69699219 -10.39078125 2.01507813 -10.25 1.3125 C-7.02434056 -0.30032972 -3.54059192 0.04462931 0 0 Z " fill="#2C313A" transform="translate(427.25,187.6875)"/>
<path d="M0 0 C3.11719813 0.96740632 4.00476588 2.00765945 5.75 4.8125 C7.8925903 10.25583752 7.23304141 16.26027645 7 22 C3.13824458 23.34321928 -0.57327096 22.86160803 -4.5625 22.5 C-9.83360225 21.97548875 -9.83360225 21.97548875 -15 23 C-15 22.01 -15 21.02 -15 20 C-14.01 20 -13.02 20 -12 20 C-12 17.69 -12 15.38 -12 13 C-10.35 12.67 -8.7 12.34 -7 12 C-7 9.36 -7 6.72 -7 4 C-6.34 4 -5.68 4 -5 4 C-4.67 3.34 -4.34 2.68 -4 2 C-3.01 2.33 -2.02 2.66 -1 3 C-0.67 2.01 -0.34 1.02 0 0 Z " fill="#20252E" transform="translate(306,191)"/>
<path d="M0 0 C5.28 0 10.56 0 16 0 C17.01019914 2.66325229 18.00994871 5.32927626 19 8 C19.391875 9.051875 19.78375 10.10375 20.1875 11.1875 C20.9859356 13.95131555 21.16808903 16.14248651 21 19 C20.34 19 19.68 19 19 19 C18.67 18.34 18.34 17.68 18 17 C17.01 17.66 16.02 18.32 15 19 C14.67 18.01 14.34 17.02 14 16 C13.34 16 12.68 16 12 16 C12.45822468 19.46941546 12.89131683 22.67395049 14 26 C13.34 26 12.68 26 12 26 C12.33 27.98 12.66 29.96 13 32 C9.10848513 28.10848513 7.85964577 22.09940602 6 17 C5.50886719 15.65421875 5.50886719 15.65421875 5.0078125 14.28125 C3.69380402 10.52694007 3 8.06180503 3 4 C3.33 3.34 3.66 2.68 4 2 C2.68 2 1.36 2 0 2 C0 1.34 0 0.68 0 0 Z " fill="#333841" transform="translate(345,188)"/>
<path d="M0 0 C2.475 0.99 2.475 0.99 5 2 C5 2.99 5 3.98 5 5 C6.0828125 4.6596875 6.0828125 4.6596875 7.1875 4.3125 C10.79052197 3.91216423 12.14779845 4.86084883 15 7 C16.41000664 9.82001327 16.24548451 11.87007255 16 15 C14.625 17.6875 14.625 17.6875 13 20 C12.34 20.99 11.68 21.98 11 23 C8.375 23.1875 8.375 23.1875 6 23 C5 20 5 20 4.25 16.5625 C2.8127208 12.46625428 1.30375813 11.62606416 -2 9 C-2.8125 5.75 -2.8125 5.75 -3 3 C-2.34 3 -1.68 3 -1 3 C-0.67 2.01 -0.34 1.02 0 0 Z M7 13 C6.34 13.66 5.68 14.32 5 15 C5.99 15 6.98 15 8 15 C7.67 14.34 7.34 13.68 7 13 Z " fill="#272D37" transform="translate(517,80)"/>
<path d="M0 0 C5.39874161 1.23129195 5.39874161 1.23129195 7.5625 2.8125 C8.3125 4.9375 8.3125 4.9375 8.5625 6.8125 C7.5725 7.3075 7.5725 7.3075 6.5625 7.8125 C5.9128125 8.988125 5.9128125 8.988125 5.25 10.1875 C3.19447187 13.3849882 2.11238687 14.40733645 -1.4375 15.8125 C-5.11872908 16.05133856 -8.75447214 15.98665368 -12.4375 15.8125 C-12.12039062 15.25046875 -11.80328125 14.6884375 -11.4765625 14.109375 C-10.36875475 11.66053683 -10.04774601 9.72862145 -9.8125 7.0625 C-9.73773438 6.26328125 -9.66296875 5.4640625 -9.5859375 4.640625 C-9.53695313 4.03734375 -9.48796875 3.4340625 -9.4375 2.8125 C-8.4475 2.8125 -7.4575 2.8125 -6.4375 2.8125 C-6.025 2.296875 -5.6125 1.78125 -5.1875 1.25 C-3.4375 -0.1875 -3.4375 -0.1875 0 0 Z " fill="#2D333D" transform="translate(267.4375,212.1875)"/>
<path d="M0 0 C4.62 0 9.24 0 14 0 C13.46870624 5.97201091 12.15389059 10.94616743 9.9375 16.5 C9.51500977 17.59054688 9.51500977 17.59054688 9.08398438 18.703125 C8.39741552 20.47191255 7.69986318 22.23643041 7 24 C4.53729712 20.30594568 4.77014583 18.36722928 5 14 C5.5 11.5625 5.5 11.5625 6 10 C4.35 10.33 2.7 10.66 1 11 C0.67 11.99 0.34 12.98 0 14 C0 13.34 0 12.68 0 12 C-0.66 12 -1.32 12 -2 12 C-1.85904936 10.3745692 -1.71207913 8.74965949 -1.5625 7.125 C-1.48128906 6.22007812 -1.40007812 5.31515625 -1.31640625 4.3828125 C-1 2 -1 2 0 0 Z " fill="#363B42" transform="translate(372,188)"/>
<path d="M0 0 C1.91015625 0.48046875 1.91015625 0.48046875 4.47265625 2.54296875 C6.3464113 6.37194647 6.03978326 8.41381151 4.91015625 12.48046875 C3.31537885 14.87263484 2.25250806 15.36334839 -0.46484375 16.29296875 C-3.61504755 16.51798331 -5.32318381 15.97596061 -8.08984375 14.48046875 C-10.43153139 10.96793729 -10.58608052 9.61577519 -10.08984375 5.48046875 C-7.60245173 0.71296737 -5.15212644 -0.35631529 0 0 Z " fill="#393E46" transform="translate(662.08984375,168.51953125)"/>
<path d="M0 0 C2.4375 1.5625 2.4375 1.5625 4 4 C4.55802097 7.90614682 4.58392818 10.05111671 2.5 13.4375 C-1.24892004 15.78057502 -3.61035762 15.48773804 -8 15 C-10.73883355 13.40970955 -10.94967699 12.16534703 -11.875 9.125 C-12.02405268 5.39868289 -11.25133987 3.91840353 -9 1 C-5.90826248 -0.54586876 -3.40570448 -0.29359521 0 0 Z " fill="#343942" transform="translate(400,169)"/>
<path d="M0 0 C2.67592112 1.55376065 2.93799486 2.81811827 3.9375 5.75 C4.02403004 10.24956201 2.45699542 12.27727967 0 16 C-3.3 15.34 -6.6 14.68 -10 14 C-11.40008964 10.11086212 -12.1577403 7.70983133 -11.25 3.625 C-8.97028923 -1.16239261 -4.78917179 -0.52994934 0 0 Z " fill="#20252D" transform="translate(192,169)"/>
<path d="M0 0 C3.75180105 2.81219655 6.64206195 5.77552464 9.5625 9.4375 C10.67818359 10.82775391 10.67818359 10.82775391 11.81640625 12.24609375 C12.53699219 13.15488281 13.25757813 14.06367187 14 15 C15.33305447 16.66688972 16.66629789 18.33362842 18 20 C15.36 19.67 12.72 19.34 10 19 C10 18.01 10 17.02 10 16 C8.35 15.67 6.7 15.34 5 15 C3.5393715 17.64738916 3 18.89448334 3 22 C0.06799526 19.14723863 -2.64315404 16.34920216 -5 13 C-4.01 13 -3.02 13 -2 13 C-2.556875 11.8553125 -2.556875 11.8553125 -3.125 10.6875 C-3.41375 9.800625 -3.7025 8.91375 -4 8 C-3.34 7.01 -2.68 6.02 -2 5 C-1.30686092 3.34416775 -0.63525576 1.67889021 0 0 Z " fill="#373C44" transform="translate(512,66)"/>
<path d="M0 0 C2 1 2 1 2.62109375 2.765625 C3.2575712 6.51887347 3.05590323 10.19858068 3 14 C5.97 14 8.94 14 12 14 C13 18 13 18 13 22 C17.29 22 21.58 22 26 22 C25.34 22.33 24.68 22.66 24 23 C23.67 23.66 23.34 24.32 23 25 C21.72125 24.855625 20.4425 24.71125 19.125 24.5625 C14.08719116 24.00185355 9.04463121 23.49498469 4 23 C4 20 4 20 5 18 C4.38125 17.731875 3.7625 17.46375 3.125 17.1875 C1 16 1 16 -1 13 C-0.67 12.01 -0.34 11.02 0 10 C-0.66 10 -1.32 10 -2 10 C-2.6875 6.6875 -2.6875 6.6875 -3 3 C-1.5625 1.0625 -1.5625 1.0625 0 0 Z " fill="#202630" transform="translate(578,189)"/>
<path d="M0 0 C0.99 0.33 1.98 0.66 3 1 C3 1.66 3 2.32 3 3 C3.66 3 4.32 3 5 3 C5 3.66 5 4.32 5 5 C5.99 5.33 6.98 5.66 8 6 C7.34 6 6.68 6 6 6 C6.3403125 7.3921875 6.3403125 7.3921875 6.6875 8.8125 C7 12 7 12 5.5625 13.875 C5.046875 14.24625 4.53125 14.6175 4 15 C2.68 14.34 1.36 13.68 0 13 C0 13.66 0 14.32 0 15 C-1.32 14.67 -2.64 14.34 -4 14 C-4.66 15.32 -5.32 16.64 -6 18 C-7.65 18 -9.3 18 -11 18 C-9.35 14.04 -7.7 10.08 -6 6 C-5.34 6 -4.68 6 -4 6 C-3.71125 5.38125 -3.4225 4.7625 -3.125 4.125 C-2 2 -2 2 0 0 Z " fill="#252B34" transform="translate(507,109)"/>
<path d="M0 0 C4.29 0 8.58 0 13 0 C13.66 2.31 14.32 4.62 15 7 C12.525 6.01 12.525 6.01 10 5 C10.061875 5.7425 10.12375 6.485 10.1875 7.25 C9.96760006 10.47519908 9.21747812 11.69723426 7 14 C6.34 14 5.68 14 5 14 C5.33 16.31 5.66 18.62 6 21 C3.34519218 18.34519218 2.59936799 15.70887229 1.3125 12.1875 C0.85488281 10.96417969 0.39726562 9.74085938 -0.07421875 8.48046875 C-1 5 -1 5 0 0 Z " fill="#3E444B" transform="translate(448,188)"/>
<path d="M0 0 C0.33 0.66 0.66 1.32 1 2 C0.67 2.99 0.34 3.98 0 5 C0.66 5.33 1.32 5.66 2 6 C1.67 6.99 1.34 7.98 1 9 C1 9.99 1 10.98 1 12 C0.34 12 -0.32 12 -1 12 C-1.33 11.34 -1.66 10.68 -2 10 C-2.6496875 11.1446875 -2.6496875 11.1446875 -3.3125 12.3125 C-5 15 -5 15 -6.6875 16.5 C-8.25031576 17.99231664 -8.25031576 17.99231664 -8.25 20.5625 C-8.14460969 23.00546594 -8.14460969 23.00546594 -7 25 C-6.34 25.33 -5.68 25.66 -5 26 C-5.33 27.65 -5.66 29.3 -6 31 C-11.875 30.125 -11.875 30.125 -13 29 C-13.9423233 21.57920403 -12.32542972 18.2204572 -7.81640625 12.36328125 C-5.52842329 9.38644321 -3.80952314 6.2839494 -2 3 C-1.34 2.01 -0.68 1.02 0 0 Z " fill="#33383F" transform="translate(428,109)"/>
<path d="M0 0 C1.1446875 0.2784375 1.1446875 0.2784375 2.3125 0.5625 C5.08967375 1.22819173 5.08967375 1.22819173 8 0 C8 0.66 8 1.32 8 2 C9.32 1.34 10.64 0.68 12 0 C12.66 0.99 13.32 1.98 14 3 C13.60167969 3.58007812 13.20335937 4.16015625 12.79296875 4.7578125 C10.43304325 8.23741069 8.19549741 11.60900518 6.3125 15.375 C5.10308632 17.79382736 4.0337562 19.2567804 2 21 C2 19.68 2 18.36 2 17 C2.66 16.67 3.32 16.34 4 16 C4.88071066 11.8606599 5.34123837 9.02371512 4 5 C1.49552484 3.78130071 1.49552484 3.78130071 -1 3 C-0.67 2.01 -0.34 1.02 0 0 Z " fill="#3C4149" transform="translate(430,106)"/>
<path d="M0 0 C2.83116402 0.91821536 4.75048057 1.76657859 6.9375 3.8125 C8 6 8 6 7.25 8.5625 C6.8375 9.366875 6.425 10.17125 6 11 C5.67 11.99 5.34 12.98 5 14 C4.34 14 3.68 14 3 14 C3 15.65 3 17.3 3 19 C2.34 19 1.68 19 1 19 C0.93941406 18.37351562 0.87882812 17.74703125 0.81640625 17.1015625 C0.73261719 16.28429687 0.64882813 15.46703125 0.5625 14.625 C0.48128906 13.81289062 0.40007812 13.00078125 0.31640625 12.1640625 C0.10909886 9.95727195 0.10909886 9.95727195 -1 8 C-1 5.16032769 -0.59732819 2.76264289 0 0 Z " fill="#222931" transform="translate(429,109)"/>
<path d="M0 0 C3 2 3 2 3.9375 4.6875 C4.02328772 9.23424927 2.48199502 11.23940148 0 15 C-1.64767247 14.71890887 -3.29313145 14.42481474 -4.9375 14.125 C-5.85402344 13.96257812 -6.77054688 13.80015625 -7.71484375 13.6328125 C-8.84599609 13.31957031 -8.84599609 13.31957031 -10 13 C-10.33 12.34 -10.66 11.68 -11 11 C-8.525 11.495 -8.525 11.495 -6 12 C-6 11.01 -6 10.02 -6 9 C-5.34 8.34 -4.68 7.68 -4 7 C-2.0630204 4.5981453 -0.98825873 2.9647762 0 0 Z " fill="#32363E" transform="translate(192,170)"/>
<path d="M0 0 C2 1.6875 2 1.6875 3 4 C2.6875 6.75 2.6875 6.75 2 9 C1.443125 8.62875 0.88625 8.2575 0.3125 7.875 C-2.05716353 6.70484137 -2.05716353 6.70484137 -4.75 7.875 C-5.4925 8.24625 -6.235 8.6175 -7 9 C-7.66 7.68 -8.32 6.36 -9 5 C-9.99 5.33 -10.98 5.66 -12 6 C-9.98483106 -0.04550683 -6.01950504 -0.76611882 0 0 Z " fill="#363B42" transform="translate(400,49)"/>
<path d="M0 0 C3.96 0.33 7.92 0.66 12 1 C12.33 2.32 12.66 3.64 13 5 C11.0625 7.25 11.0625 7.25 9 9 C8.34 7.68 7.68 6.36 7 5 C3.94729537 4.84188612 3.94729537 4.84188612 1 6 C1 6.99 1 7.98 1 9 C0.01 9 -0.98 9 -2 9 C-1.67 7.35 -1.34 5.7 -1 4 C-1.99 3.67 -2.98 3.34 -4 3 C-3.01 2.67 -2.02 2.34 -1 2 C-0.67 1.34 -0.34 0.68 0 0 Z " fill="#32363E" transform="translate(433,214)"/>
<path d="M0 0 C2.4375 2 2.4375 2 4 4 C3.67 4.99 3.34 5.98 3 7 C2.29875 6.855625 1.5975 6.71125 0.875 6.5625 C-2.07556141 5.98521625 -5.03270151 5.48304859 -8 5 C-8.33 6.32 -8.66 7.64 -9 9 C-9.99 9 -10.98 9 -12 9 C-11.52 3.6 -11.52 3.6 -9.375 1.125 C-6.02604821 -0.46134558 -3.65973254 -0.45746657 0 0 Z " fill="#43484E" transform="translate(400,169)"/>
<path d="M0 0 C0.33 0.66 0.66 1.32 1 2 C0.67 2.99 0.34 3.98 0 5 C0.66 5.33 1.32 5.66 2 6 C1.67 6.99 1.34 7.98 1 9 C1 9.99 1 10.98 1 12 C0.34 12 -0.32 12 -1 12 C-1.33 11.34 -1.66 10.68 -2 10 C-2.37125 10.7425 -2.7425 11.485 -3.125 12.25 C-5.32362135 15.47464465 -7.67963799 17.00778279 -11 19 C-9.58653605 16.01076046 -7.93825606 13.34556222 -6.0625 10.625 C-3.73033484 7.17522024 -1.74341217 3.77739303 0 0 Z " fill="#3B3F46" transform="translate(428,109)"/>
<path d="M0 0 C1.9375 0.6875 1.9375 0.6875 4 2 C4.75 4.625 4.75 4.625 5 7 C1.375 10 1.375 10 -2 10 C-3.0625 8.1875 -3.0625 8.1875 -4 6 C-3.0022242 3.00667261 -2.2477975 2.05233685 0 0 Z " fill="#2A3039" transform="translate(437,217)"/>
<path d="M0 0 C0.66 0.33 1.32 0.66 2 1 C1.67 1.66 1.34 2.32 1 3 C2.670625 2.9690625 2.670625 2.9690625 4.375 2.9375 C8 3 8 3 10 4 C9.67 5.32 9.34 6.64 9 8 C8.34 7.67 7.68 7.34 7 7 C6.01 8.485 6.01 8.485 5 10 C3.02 9.34 1.04 8.68 -1 8 C-0.67 5.36 -0.34 2.72 0 0 Z " fill="#202730" transform="translate(417,190)"/>
<path d="M0 0 C-1.61268692 2.71224618 -3.24901874 5.37352812 -5 8 C-7.625 8.1875 -7.625 8.1875 -10 8 C-10.33 6.68 -10.66 5.36 -11 4 C-10.01 3.67 -9.02 3.34 -8 3 C-7.67 2.01 -7.34 1.02 -7 0 C-2.25 -1.125 -2.25 -1.125 0 0 Z " fill="#212631" transform="translate(533,95)"/>
<path d="M0 0 C0.99 0 1.98 0 3 0 C3 1.65 3 3.3 3 5 C3.66 5.33 4.32 5.66 5 6 C5.73075648 8.3140622 6.40138258 10.64828869 7 13 C6.34 13 5.68 13 5 13 C5.33 14.98 5.66 16.96 6 19 C1.83753486 14.83753486 0.13990957 8.06366613 -0.25 2.3125 C-0.1675 1.549375 -0.085 0.78625 0 0 Z " fill="#494D52" transform="translate(352,201)"/>
<path d="M0 0 C0.99 0.33 1.98 0.66 3 1 C3 1.99 3 2.98 3 4 C3.99 4.66 4.98 5.32 6 6 C5.67 7.32 5.34 8.64 5 10 C2.625 10.1875 2.625 10.1875 0 10 C-2.14915785 6.77626323 -2.38286803 5.73296326 -2 2 C-1.34 1.34 -0.68 0.68 0 0 Z " fill="#282D32" transform="translate(491,129)"/>
<path d="M0 0 C0.66 0 1.32 0 2 0 C2 2.31 2 4.62 2 7 C0.5459375 7.433125 0.5459375 7.433125 -0.9375 7.875 C-4.10664203 8.64214682 -4.10664203 8.64214682 -5 11 C-5.38613383 8.37428995 -5.38493778 6.6156121 -3.95703125 4.33203125 C-2.625 2.6875 -2.625 2.6875 0 0 Z " fill="#45484F" transform="translate(415,190)"/>
<path d="M0 0 C2 2 2 2 2 3 C2.66 3 3.32 3 4 3 C3.67 4.98 3.34 6.96 3 9 C1.1875 9.6875 1.1875 9.6875 -1 10 C-2.75 8.5625 -2.75 8.5625 -4 7 C-2.68 4.69 -1.36 2.38 0 0 Z " fill="#212631" transform="translate(508,109)"/>
<path d="M0 0 C1.32 0 2.64 0 4 0 C3.44271087 3.34373475 2.64826111 6.03312999 1 9 C0.01 9 -0.98 9 -2 9 C-2.25 3.375 -2.25 3.375 0 0 Z " fill="#252A30" transform="translate(491,49)"/>
<path d="M0 0 C0.99 0 1.98 0 3 0 C3 4.62 3 9.24 3 14 C2.67 12.68 2.34 11.36 2 10 C1.34 10 0.68 10 0 10 C-0.19412181 8.52168779 -0.38012131 7.04230684 -0.5625 5.5625 C-0.66691406 4.73878906 -0.77132812 3.91507813 -0.87890625 3.06640625 C-0.91886719 2.38449219 -0.95882812 1.70257813 -1 1 C-0.67 0.67 -0.34 0.34 0 0 Z " fill="#1F262E" transform="translate(643,200)"/>
<path d="M0 0 C1.32 0.66 2.64 1.32 4 2 C1.69 4.97 -0.62 7.94 -3 11 C-3.66 9.68 -4.32 8.36 -5 7 C-3.35 4.69 -1.7 2.38 0 0 Z " fill="#464A51" transform="translate(381,76)"/>
<path d="M0 0 C1.32 0.33 2.64 0.66 4 1 C4 1.66 4 2.32 4 3 C3.34 3 2.68 3 2 3 C2 3.66 2 4.32 2 5 C2.66 5 3.32 5 4 5 C4 5.66 4 6.32 4 7 C-2.52307692 7.36923077 -2.52307692 7.36923077 -4.9375 5.5 C-5.4634375 4.7575 -5.4634375 4.7575 -6 4 C-3.525 4.495 -3.525 4.495 -1 5 C-1 4.01 -1 3.02 -1 2 C-0.67 1.34 -0.34 0.68 0 0 Z " fill="#434950" transform="translate(187,177)"/>
<path d="M0 0 C-0.4794463 4.21912747 -1.16625119 6.79663178 -4 10 C-4.33 7.03 -4.66 4.06 -5 1 C-3 0 -3 0 0 0 Z " fill="#565B61" transform="translate(382,202)"/>
<path d="M0 0 C0.66 0.33 1.32 0.66 2 1 C0.68 3.64 -0.64 6.28 -2 9 C-2.99 9 -3.98 9 -5 9 C-4.50769231 3.46153846 -4.50769231 3.46153846 -1.9375 1.125 C-1.298125 0.75375 -0.65875 0.3825 0 0 Z " fill="#4D4F56" transform="translate(393,169)"/>
<path d="M0 0 C1.65 0 3.3 0 5 0 C5.75 1.75 5.75 1.75 6 4 C4.0625 6.25 4.0625 6.25 2 8 C1.34 5.36 0.68 2.72 0 0 Z " fill="#53565C" transform="translate(440,215)"/>
<path d="M0 0 C5.94 0 11.88 0 18 0 C17.01 0.495 17.01 0.495 16 1 C15.67 1.66 15.34 2.32 15 3 C9.9697924 2.47462276 4.98114761 1.89405214 0 1 C0 0.67 0 0.34 0 0 Z " fill="#000011" transform="translate(586,211)"/>
<path d="M0 0 C0.66 0.33 1.32 0.66 2 1 C1.2884375 1.7734375 1.2884375 1.7734375 0.5625 2.5625 C-1.42809407 5.66782675 -1.65060818 8.36632504 -2 12 C-4 11 -4 11 -4.8125 8.75 C-5.05245615 5.23064318 -4.08696648 3.78262197 -2 1 C-1.34 0.67 -0.68 0.34 0 0 Z " fill="#1E2227" transform="translate(281,193)"/>
<path d="M0 0 C2.05078125 0.03255208 4.1015625 0.06510417 6.15234375 0.09765625 C6.15234375 0.75765625 6.15234375 1.41765625 6.15234375 2.09765625 C4.94578125 2.06671875 4.94578125 2.06671875 3.71484375 2.03515625 C1.2187949 1.80132004 1.2187949 1.80132004 0.15234375 3.09765625 C2.79234375 3.42765625 5.43234375 3.75765625 8.15234375 4.09765625 C8.15234375 4.42765625 8.15234375 4.75765625 8.15234375 5.09765625 C4.85234375 5.09765625 1.55234375 5.09765625 -1.84765625 5.09765625 C-2.17765625 3.77765625 -2.50765625 2.45765625 -2.84765625 1.09765625 C-1.84765625 0.09765625 -1.84765625 0.09765625 0 0 Z " fill="#788083" transform="translate(290.84765625,197.90234375)"/>
<path d="M0 0 C0.99 0.33 1.98 0.66 3 1 C2.67 1.66 2.34 2.32 2 3 C2.66 3.33 3.32 3.66 4 4 C3.01 4.99 2.02 5.98 1 7 C5.455 6.505 5.455 6.505 10 6 C10 6.66 10 7.32 10 8 C6.7 8 3.4 8 0 8 C-0.79953138 4.71303767 -1.09658936 3.28976808 0 0 Z " fill="#61666D" transform="translate(581,195)"/>
<path d="M0 0 C1.32 0.66 2.64 1.32 4 2 C3.6875 3.875 3.6875 3.875 3 6 C0 8 0 8 -2.1875 7.625 C-2.785625 7.41875 -3.38375 7.2125 -4 7 C-3.01 6.67 -2.02 6.34 -1 6 C-1.020625 5.195625 -1.04125 4.39125 -1.0625 3.5625 C-1 1 -1 1 0 0 Z " fill="#43484D" transform="translate(497,132)"/>
<path d="M0 0 C0 3.9919694 -1.11957103 6.49851158 -3 10 C-5.6875 10.9375 -5.6875 10.9375 -8 11 C-6.625 8.5 -6.625 8.5 -5 6 C-4.34 6 -3.68 6 -3 6 C-2.814375 5.071875 -2.814375 5.071875 -2.625 4.125 C-2 2 -2 2 0 0 Z " fill="#626568" transform="translate(386,56)"/>
<path d="M0 0 C0.33 0.66 0.66 1.32 1 2 C0.22265625 4.1640625 0.22265625 4.1640625 -0.9375 6.625 C-1.31777344 7.44226563 -1.69804687 8.25953125 -2.08984375 9.1015625 C-2.39019531 9.72804687 -2.69054687 10.35453125 -3 11 C-3.66 11 -4.32 11 -5 11 C-5.33 10.01 -5.66 9.02 -6 8 C-5.34 8 -4.68 8 -4 8 C-3.67 6.68 -3.34 5.36 -3 4 C-2.34 4 -1.68 4 -1 4 C-0.67 2.68 -0.34 1.36 0 0 Z " fill="#44474C" transform="translate(375,217)"/>
<path d="M0 0 C2.97 0.495 2.97 0.495 6 1 C6 1.66 6 2.32 6 3 C5.360625 3.4125 4.72125 3.825 4.0625 4.25 C1.29641768 6.59697894 1.31288108 8.48008781 1 12 C0.67 12 0.34 12 0 12 C0 8.04 0 4.08 0 0 Z " fill="#1D2329" transform="translate(633,203)"/>
<path d="M0 0 C0.99 0.33 1.98 0.66 3 1 C3 2.32 3 3.64 3 5 C1.63875 4.9690625 1.63875 4.9690625 0.25 4.9375 C-2.42672588 4.9889755 -4.46988052 5.2215017 -7 6 C-2.25 1.125 -2.25 1.125 0 0 Z " fill="#5C6064" transform="translate(683,188)"/>
<path d="M0 0 C1.423125 0.2784375 1.423125 0.2784375 2.875 0.5625 C5.89868793 1.28686632 5.89868793 1.28686632 8 0 C8 0.99 8 1.98 8 3 C8.99 3.33 9.98 3.66 11 4 C8.01120724 4.85394079 6.28236729 5.07700926 3.25 4.25 C1 3 1 3 0 0 Z " fill="#5E6266" transform="translate(653,180)"/>
<path d="M0 0 C2.31 0 4.62 0 7 0 C6.360625 0.12375 5.72125 0.2475 5.0625 0.375 C4.381875 0.58125 3.70125 0.7875 3 1 C2.67 1.66 2.34 2.32 2 3 C0.69084721 4.03145371 -0.64082143 5.03542166 -2 6 C-2 5.34 -2 4.68 -2 4 C-3.98 4 -5.96 4 -8 4 C-7.67 3.34 -7.34 2.68 -7 2 C-5.02 2 -3.04 2 -1 2 C-0.67 1.34 -0.34 0.68 0 0 Z " fill="#575A60" transform="translate(300,214)"/>
<path d="M0 0 C0.99 0.33 1.98 0.66 3 1 C3 3.64 3 6.28 3 9 C1.68 9 0.36 9 -1 9 C-0.67 6.03 -0.34 3.06 0 0 Z M3 0 C7 1 7 1 7 1 Z " fill="#21262F" transform="translate(546,220)"/>
<path d="M0 0 C0.66 0 1.32 0 2 0 C2.33 0.99 2.66 1.98 3 3 C1 6 1 6 -1.625 6.6875 C-2.800625 6.8421875 -2.800625 6.8421875 -4 7 C-2.68 4.69 -1.36 2.38 0 0 Z " fill="#4D5257" transform="translate(444,84)"/>
<path d="M0 0 C0 3.64478912 -0.85802506 5.09303401 -3 8 C-5.1875 8.8125 -5.1875 8.8125 -7 9 C-6.67 8.01 -6.34 7.02 -6 6 C-5.34 6 -4.68 6 -4 6 C-3.71125 5.38125 -3.4225 4.7625 -3.125 4.125 C-2 2 -2 2 0 0 Z " fill="#575B61" transform="translate(507,109)"/>
<path d="M0 0 C0.33 0 0.66 0 1 0 C1.64165788 5.26159459 0.20577001 7.68592849 -2.90625 11.6796875 C-3.2671875 12.11539063 -3.628125 12.55109375 -4 13 C-4 9.72477948 -3.27945405 7.98539277 -2 5 C-1.62875 4.071875 -1.2575 3.14375 -0.875 2.1875 C-0.441875 1.1046875 -0.441875 1.1046875 0 0 Z " fill="#4D4F55" transform="translate(533,91)"/>
<path d="M0 0 C1.32 0 2.64 0 4 0 C4.33 0.99 4.66 1.98 5 3 C4.34 3 3.68 3 3 3 C3.33 5.31 3.66 7.62 4 10 C1.04816899 7.04816899 0.91336012 4.04488053 0 0 Z " fill="#5F646C" transform="translate(450,199)"/>
<path d="M0 0 C0.93423645 3.01031744 1.04449911 3.86650268 0 7 C-1.95597184 8.39712274 -3.95436401 9.73779907 -6 11 C-4.18690997 7.22272911 -2.0926741 3.62730178 0 0 Z " fill="#686A73" transform="translate(423,117)"/>
<path d="M0 0 C3.3 0 6.6 0 10 0 C9.67 0.66 9.34 1.32 9 2 C6.35139573 2.59355614 3.70802678 2.74209269 1 3 C0.67 2.01 0.34 1.02 0 0 Z " fill="#06060A" transform="translate(261,199)"/>
<path d="M0 0 C1.5 1.25 1.5 1.25 3 3 C3 4.32 3 5.64 3 7 C1.68 6.67 0.36 6.34 -1 6 C-1 3 -1 3 0 0 Z " fill="#444952" transform="translate(643,191)"/>
<path d="M0 0 C1.65 0 3.3 0 5 0 C4.67 1.65 4.34 3.3 4 5 C1.525 4.01 1.525 4.01 -1 3 C-0.67 2.01 -0.34 1.02 0 0 Z " fill="#4A4C53" transform="translate(251,222)"/>
<path d="M0 0 C-1.65 1.65 -3.3 3.3 -5 5 C-5.66 3.35 -6.32 1.7 -7 0 C-3.98968256 -0.93423645 -3.13349732 -1.04449911 0 0 Z " fill="#21262E" transform="translate(681,216)"/>
<path d="M0 0 C1.32 0 2.64 0 4 0 C3.67 0.99 3.34 1.98 3 3 C2.34 2.67 1.68 2.34 1 2 C0.67 2.99 0.34 3.98 0 5 C-0.99 5 -1.98 5 -3 5 C-1.125 1.125 -1.125 1.125 0 0 Z " fill="#4A4E52" transform="translate(264,212)"/>
<path d="M0 0 C0.66 0.33 1.32 0.66 2 1 C-0.31 3.31 -2.62 5.62 -5 8 C-5.66 7.67 -6.32 7.34 -7 7 C-4.78071806 4.09197539 -3.07030857 2.04687238 0 0 Z " fill="#5B5F67" transform="translate(576,189)"/>
<path d="M0 0 C2.4375 0.375 2.4375 0.375 5 1 C5.33 1.66 5.66 2.32 6 3 C5.0625 5.125 5.0625 5.125 4 7 C3.34 6.34 2.68 5.68 2 5 C2 3.68 2 2.36 2 1 C1.34 0.67 0.68 0.34 0 0 Z " fill="#61646D" transform="translate(301,188)"/>
<path d="M0 0 C-0.7115625 0.680625 -0.7115625 0.680625 -1.4375 1.375 C-3.09027808 2.93258204 -3.09027808 2.93258204 -4 5 C-4.433125 4.525625 -4.86625 4.05125 -5.3125 3.5625 C-7.02309613 1.76313043 -7.02309613 1.76313043 -10 1 C-6.78548731 -0.60725635 -3.56387464 -0.05748185 0 0 Z " fill="#5A5C64" transform="translate(192,169)"/>
<path d="M0 0 C2.16874252 0.50603992 3.99967627 0.99983813 6 2 C5.67 3.32 5.34 4.64 5 6 C4.01 6 3.02 6 2 6 C2.33 4.68 2.66 3.36 3 2 C2.01 2 1.02 2 0 2 C0 1.34 0 0.68 0 0 Z " fill="#1F262D" transform="translate(491,133)"/>
<path d="M0 0 C0.66 0.99 1.32 1.98 2 3 C0.35 4.32 -1.3 5.64 -3 7 C-4.125 3.25 -4.125 3.25 -3 1 C-2.01 0.67 -1.02 0.34 0 0 Z " fill="#3E464C" transform="translate(388,70)"/>
<path d="M0 0 C2.875 0.3125 2.875 0.3125 6 1 C6.66 1.99 7.32 2.98 8 4 C7.401875 3.835 6.80375 3.67 6.1875 3.5 C3.88655664 2.8885876 3.88655664 2.8885876 1 3 C0.67 2.01 0.34 1.02 0 0 Z " fill="#787B80" transform="translate(555,220)"/>
<path d="M0 0 C2.88437779 1.29299694 4.87219421 2.65941363 7 5 C4.69 5 2.38 5 0 5 C0 3.35 0 1.7 0 0 Z " fill="#1A1E25" transform="translate(539,194)"/>
<path d="M0 0 C0.66 0 1.32 0 2 0 C2.66 1.98 3.32 3.96 4 6 C2.02 5.34 0.04 4.68 -2 4 C-1.34 2.68 -0.68 1.36 0 0 Z " fill="#20272F" transform="translate(627,193)"/>
<path d="M0 0 C2.62187494 1.04874998 3.79371361 1.64931313 5.25 4.125 C5.4975 4.74375 5.745 5.3625 6 6 C3 6 3 6 1.3125 4.6875 C0 3 0 3 0 0 Z " fill="#5D6063" transform="translate(231,188)"/>
<path d="M0 0 C1.65 0 3.3 0 5 0 C4.67 2.31 4.34 4.62 4 7 C2 6 2 6 0.875 2.9375 C0.58625 1.968125 0.2975 0.99875 0 0 Z " fill="#3C3F47" transform="translate(578,188)"/>
<path d="M0 0 C2.64 0 5.28 0 8 0 C8 2.64 8 5.28 8 8 C7.67 8 7.34 8 7 8 C6.34 6.02 5.68 4.04 5 2 C3.35 1.67 1.7 1.34 0 1 C0 0.67 0 0.34 0 0 Z " fill="#6D7075" transform="translate(263,188)"/>
<path d="M0 0 C0.99 0.33 1.98 0.66 3 1 C2.67 2.65 2.34 4.3 2 6 C1.01 5.67 0.02 5.34 -1 5 C-0.67 3.35 -0.34 1.7 0 0 Z " fill="#232932" transform="translate(370,106)"/>
<path d="M0 0 C1.32 0.66 2.64 1.32 4 2 C2 4 0 6 -2 8 C-2.6875 6.25 -2.6875 6.25 -3 4 C-1.5625 1.75 -1.5625 1.75 0 0 Z " fill="#1C232A" transform="translate(387,56)"/>
<path d="M0 0 C-0.57344937 2.86724686 -0.8614515 3.8614515 -3 6 C-3 5.01 -3 4.02 -3 3 C-3.66 3 -4.32 3 -5 3 C-5 2.34 -5 1.68 -5 1 C-3 0 -3 0 0 0 Z " fill="#242930" transform="translate(194,179)"/>
<path d="" fill="#000000" transform="translate(0,0)"/>
<path d="" fill="#000000" transform="translate(0,0)"/>
<path d="" fill="#000000" transform="translate(0,0)"/>
<path d="" fill="#000000" transform="translate(0,0)"/>
<path d="" fill="#000000" transform="translate(0,0)"/>
</svg>
